<svg xmlns="http://www.w3.org/2000/svg" viewBox="0 0 400 300" role="img" aria-label="Peptide drug discovery">
  <defs>
    <linearGradient id="bg" x1="0" y1="0" x2="1" y2="1">
      <stop offset="0" stop-color="#0b1f2a"/><stop offset="1" stop-color="#123040"/>
    </linearGradient>
    <linearGradient id="p" x1="0" y1="0" x2="1" y2="1">
      <stop offset="0" stop-color="#14a58c"/><stop offset="1" stop-color="#0aa8c9"/>
    </linearGradient>
  </defs>
  <rect width="400" height="300" fill="url(#bg)"/>
  <g stroke="#2b4a58"><path d="M0 180H400"/></g>
  <g fill="none" stroke="url(#p)" stroke-width="7" stroke-linecap="round">
    <path d="M30 150 L70 150 L90 120 L130 120 L150 160 L190 160 L210 130 L250 130"/>
  </g>
  <g fill="#7fd8c4">
    <circle cx="70" cy="150" r="11"/><circle cx="130" cy="120" r="11"/><circle cx="190" cy="160" r="11"/><circle cx="250" cy="130" r="11"/>
  </g>
  <g transform="translate(310,110)">
    <polygon points="0,-24 21,-12 21,12 0,24 -21,12 -21,-12" fill="none" stroke="#f2a93b" stroke-width="4"/>
    <circle cx="0" cy="0" r="8" fill="#f2a93b"/>
  </g>
  <path d="M270 130 L292 118" stroke="#f2a93b" stroke-width="2" stroke-dasharray="4 4"/>
  <text x="30" y="285" fill="#9fc6c0" font-size="13" font-family="sans-serif">Peptide drug discovery</text>
</svg>
